<svg width="340" height="420" viewBox="0 0 340 420" xmlns="http://www.w3.org/2000/svg">
  <title>Stomach Acid Blob — boss, mouth open / roaring</title>
  <desc>Stomach-room boss in the vulnerable roaring state. Same green gelatin body and peaks as idle, but with arms raised up and outward in attack pose and a gaping mouth full of jagged acid teeth visible. Use this sprite while the blob is roaring and can be stomped.</desc>
  <path d="M 40,405 L 300,405 Q 330,290 290,200 Q 250,120 210,50 Q 195,10 195,30 Q 185,70 160,90 Q 145,95 135,85 Q 120,55 120,75 Q 90,80 70,140 Q 20,230 40,405 Z" fill="#7FD13B" stroke="#3A8C1A" stroke-width="4"/>
  <path d="M 100,260 Q 85,210 130,190 Q 190,185 220,230 Q 230,290 190,310 Q 130,320 100,290 Z" fill="#4A8C2A" opacity="0.35"/>
  <path d="M 210,120 Q 205,100 230,105 Q 240,115 230,130 Z" fill="#4A8C2A" opacity="0.35"/>
  <circle cx="80" cy="200" r="3" fill="#FFFFFF" opacity="0.7"/>
  <circle cx="210" cy="160" r="3" fill="#FFFFFF" opacity="0.7"/>
  <circle cx="150" cy="360" r="3" fill="#FFFFFF" opacity="0.7"/>
  <circle cx="250" cy="300" r="2.5" fill="#FFFFFF" opacity="0.7"/>
  <circle cx="110" cy="160" r="2" fill="#FFFFFF" opacity="0.7"/>
  <circle cx="230" cy="260" r="2" fill="#FFFFFF" opacity="0.7"/>
  <path d="M 55,200 Q 15,150 5,90 Q 25,70 40,90 Q 50,130 75,200 Z" fill="#7FD13B" stroke="#3A8C1A" stroke-width="3"/>
  <circle cx="18" cy="80" r="14" fill="#7FD13B" stroke="#3A8C1A" stroke-width="3"/>
  <path d="M 285,200 Q 325,150 335,90 Q 315,70 300,90 Q 290,130 265,200 Z" fill="#7FD13B" stroke="#3A8C1A" stroke-width="3"/>
  <circle cx="322" cy="80" r="14" fill="#7FD13B" stroke="#3A8C1A" stroke-width="3"/>
  <path d="M 115,180 L 148,192" stroke="#1F4D0A" stroke-width="3.5" fill="none" stroke-linecap="round"/>
  <path d="M 205,180 L 172,192" stroke="#1F4D0A" stroke-width="3.5" fill="none" stroke-linecap="round"/>
  <ellipse cx="135" cy="210" rx="16" ry="17" fill="#FF3333" stroke="#8B2A1A" stroke-width="2.5"/>
  <ellipse cx="185" cy="210" rx="16" ry="17" fill="#FF3333" stroke="#8B2A1A" stroke-width="2.5"/>
  <circle cx="135" cy="210" r="7" fill="#1A0000"/>
  <circle cx="185" cy="210" r="7" fill="#1A0000"/>
  <circle cx="137" cy="207" r="2" fill="#FFFFFF"/>
  <circle cx="187" cy="207" r="2" fill="#FFFFFF"/>
  <path d="M 100,255 L 110,280 L 120,255 L 130,280 L 140,255 L 150,280 L 160,255 L 170,280 L 180,255 L 190,280 L 200,255 L 200,310 L 190,285 L 180,310 L 170,285 L 160,310 L 150,285 L 140,310 L 130,285 L 120,310 L 110,285 L 100,310 Z" fill="#1A3A0A" stroke="#3A8C1A" stroke-width="2"/>
</svg>
