<svg width="800" height="380" viewBox="0 0 800 380" xmlns="http://www.w3.org/2000/svg">
  <title>Splashdown panel 3 — triumph</title>
  <desc>Perspective shifts to Crispy from the front. Eyes closed in a smile-arc, expression of triumph and relief. Bright warm background with a soft sun glow.</desc>
  <rect width="800" height="380" fill="#FFE5A0"/>
  <circle cx="650" cy="80" r="50" fill="#FFFAA0" opacity="0.7"/>
  <g transform="translate(240, 30) scale(1.6)">
    <path d="M 43,128 A 85,85 0 1,0 213,128 A 85,85 0 1,0 43,128 Z M 91,138 A 37,37 0 1,1 165,138 A 37,37 0 1,1 91,138 Z" fill="#F4B942" stroke="#6B4423" stroke-width="3.5" fill-rule="evenodd"/>
    <path d="M 95,80 Q 108,72 121,80" stroke="#3A2417" stroke-width="3.5" fill="none" stroke-linecap="round"/>
    <path d="M 135,80 Q 148,72 161,80" stroke="#3A2417" stroke-width="3.5" fill="none" stroke-linecap="round"/>
    <path d="M 85,55 Q 100,45 122,58" stroke="#6B4423" stroke-width="3" fill="none" stroke-linecap="round"/>
    <path d="M 171,55 Q 156,45 134,58" stroke="#6B4423" stroke-width="3" fill="none" stroke-linecap="round"/>
    <ellipse cx="83" cy="95" rx="8" ry="4" fill="#FFB6B6" opacity="0.7"/>
    <ellipse cx="173" cy="95" rx="8" ry="4" fill="#FFB6B6" opacity="0.7"/>
  </g>
</svg>
